# xmcd CD database file
#
# Track frame offsets:
#	150
#	14264
#	26164
#	38963
#	55659
#	73099
#	82830
#	99317
#	111361
#	122922
#	137358
#	146833
#	161874
#	173314
#	186071
#
# Disc length: 2709 seconds
#
# Revision: 0
# Processed by: cddbd v1.5.2PL0 Copyright (c) Steve Scherf et al.
# Submitted via: CDex 1.70beta2
#
DISCID=c50a930f
DTITLE=Александр Ливер - Песни заграничных композиторов
DYEAR=2007
DGENRE=New Age
TTITLE0=Еврей (Великобритания)
TTITLE1=Тендер (С.Ш.А.)
TTITLE2=Полная (Франция)
TTITLE3=Шоумаст гоуон (Иран)
TTITLE4=Хорул бодум (Тува)
TTITLE5=Свой (Великобритания)
TTITLE6=Эгль нуар (Алжир)
TTITLE7=Почему бы нет? (Мексика)
TTITLE8=Только ты (С.Ш.А.)
TTITLE9=Сейчас или никогда (Италия)
TTITLE10=Джазовая интермедия (Швеция)
TTITLE11=Мирная ночь (Ф.Р.Г.)
TTITLE12=Романс немолодого мужчины (Украина)
TTITLE13=Время черешен (Франция)
TTITLE14=Письмо к оборотню (Франция)
EXTD=YEAR: 2007
EXTT0=
EXTT1=
EXTT2=
EXTT3=
EXTT4=
EXTT5=
EXTT6=
EXTT7=
EXTT8=
EXTT9=
EXTT10=
EXTT11=
EXTT12=
EXTT13=
EXTT14=
PLAYORDER=
